<svg width="18" height="10" viewBox="0 0 18 10" fill="none" xmlns="http://www.w3.org/2000/svg">
<path d="M15.4879 0.411674L15.5087 0.392987C15.793 0.130813 16.1614 0 16.5281 0C16.9034 0 17.2793 0.136858 17.5665 0.410575L17.5884 0.431461C17.863 0.702979 18 1.05474 18 1.40541C18 1.76432 17.8567 2.12378 17.57 2.39804L10.02 9.60591C9.73566 9.86809 9.36783 10 9 10C8.62469 10 8.24822 9.86259 7.96156 9.58888L0.431147 2.39969C0.143332 2.12488 0 1.76487 0 1.40651C0 1.0476 0.143906 0.688689 0.430571 0.414423L0.431725 0.412224C0.718966 0.137958 1.096 0.00110054 1.47189 0.00110054C1.84778 0.00110054 2.22482 0.138507 2.51206 0.412224L9.00058 6.60712L15.4885 0.412774L15.4879 0.411674ZM15.9634 0.863472L9.23716 7.28592C9.10592 7.41123 8.89351 7.41123 8.76284 7.28592L2.03774 0.864572C1.88174 0.715621 1.67624 0.640871 1.47189 0.640871C1.26696 0.640871 1.06204 0.715071 0.906044 0.864021C0.749472 1.01297 0.671761 1.20919 0.671761 1.40486C0.671761 1.60053 0.749472 1.7962 0.905468 1.9446L8.43473 9.13378C8.59015 9.28328 8.79565 9.35748 9.00058 9.35748C9.19974 9.35748 9.39891 9.28713 9.55261 9.14807L17.0951 1.9457C17.2517 1.7962 17.3294 1.60053 17.3294 1.40541C17.3294 1.21524 17.2563 1.02506 17.1101 0.878312L17.094 0.864021C16.9391 0.715621 16.7342 0.64142 16.5293 0.64142C16.3301 0.64142 16.1309 0.711224 15.9772 0.85083L15.9646 0.864021L15.9634 0.863472Z" fill="black"/>
</svg>
