<svg width="12" height="22" viewBox="0 0 12 22" fill="none" xmlns="http://www.w3.org/2000/svg">
<path d="M10.3253 15.2882L10.3391 15.2751C10.5287 15.0916 10.7743 15 11.0187 15C11.2689 15 11.5195 15.0958 11.711 15.2874L11.7256 15.302C11.9087 15.4921 12 15.7383 12 15.9838C12 16.235 11.9044 16.4866 11.7133 16.6786L6.68001 21.7241C6.49044 21.9077 6.24522 22 6 22C5.74979 22 5.49882 21.9038 5.30771 21.7122L0.287431 16.6798C0.0955535 16.4874 -3.57628e-07 16.2354 -3.57628e-07 15.9846C-3.57628e-07 15.7333 0.095937 15.4821 0.287047 15.2901L0.287816 15.2886C0.479309 15.0966 0.730668 15.0008 0.981259 15.0008C1.23185 15.0008 1.48321 15.097 1.6747 15.2886L6.00038 19.625L10.3257 15.2889L10.3253 15.2882ZM10.6423 15.6044L6.15811 20.1001C6.07061 20.1879 5.929 20.1879 5.84189 20.1001L1.35849 15.6052C1.25449 15.5009 1.11749 15.4486 0.981259 15.4486C0.844643 15.4486 0.708026 15.5005 0.604029 15.6048C0.499648 15.7091 0.44784 15.8464 0.44784 15.9834C0.44784 16.1204 0.499648 16.2573 0.603645 16.3612L5.62315 21.3936C5.72677 21.4983 5.86377 21.5502 6.00038 21.5502C6.13316 21.5502 6.26594 21.501 6.3684 21.4036L11.3967 16.362C11.5011 16.2573 11.5529 16.1204 11.5529 15.9838C11.5529 15.8507 11.5042 15.7175 11.4067 15.6148L11.396 15.6048C11.2927 15.5009 11.1561 15.449 11.0195 15.449C10.8867 15.449 10.7539 15.4979 10.6515 15.5956L10.643 15.6048L10.6423 15.6044Z" fill="black"/>
<path d="M1.6747 6.71183L1.66089 6.72491C1.47131 6.90843 1.22571 7 0.98126 7C0.731052 7 0.480461 6.9042 0.288967 6.7126L0.274384 6.69798C0.0913336 6.50791 0 6.26168 0 6.01621C0 5.76498 0.0955549 5.51336 0.286665 5.32137L5.31999 0.27586C5.50956 0.0923381 5.75478 0 6 0C6.25021 0 6.50118 0.0961854 6.69229 0.287787L11.7126 5.32022C11.9044 5.51259 12 5.76459 12 6.01544C12 6.26668 11.9041 6.51792 11.713 6.7099L11.7122 6.71144C11.5207 6.90343 11.2693 6.99923 11.0187 6.99923C10.7681 6.99923 10.5168 6.90304 10.3253 6.71144L5.99962 2.37501L1.67432 6.71106L1.6747 6.71183ZM1.35772 6.39557L5.84189 1.89986C5.92939 1.81214 6.071 1.81214 6.15811 1.89986L10.6415 6.3948C10.7455 6.49906 10.8825 6.55139 11.0187 6.55139C11.1554 6.55139 11.292 6.49945 11.396 6.39518C11.5004 6.29092 11.5522 6.15357 11.5522 6.0166C11.5522 5.87963 11.5004 5.74266 11.3964 5.63878L6.37685 0.606354C6.27323 0.501704 6.13623 0.449763 5.99962 0.449763C5.86684 0.449763 5.73406 0.499011 5.6316 0.59635L0.603262 5.63801C0.498881 5.74266 0.447074 5.87963 0.447074 6.01621C0.447074 6.14933 0.495811 6.28246 0.593284 6.38518L0.604029 6.39518C0.707259 6.49907 0.843876 6.55101 0.980493 6.55101C1.11327 6.55101 1.24605 6.50214 1.34851 6.40442L1.35696 6.39518L1.35772 6.39557Z" fill="black"/>
</svg>
