<svg width="147" height="147" viewBox="0 0 147 147" fill="none" xmlns="http://www.w3.org/2000/svg">
<path d="M11.9957 125.836C0.814576 111.421 -2.95117 88.8303 2.40155 68.2838C7.35059 49.287 19.0821 35.0026 35.4351 28.0621L103.706 0.0874856C104.303 -0.156931 104.984 0.128319 105.228 0.724777C105.473 1.32094 105.188 2.00228 104.591 2.24669L36.3335 30.2158C20.6755 36.8614 9.42203 50.5919 4.65965 68.8724C-0.517478 88.744 3.0861 110.542 13.8397 124.406C23.3349 136.648 40.3288 144.215 59.2981 144.648C79.5043 145.106 97.7054 137.611 109.229 124.077L144.94 81.5812C145.355 81.088 146.091 81.0241 146.584 81.4386C147.077 81.853 147.141 82.5892 146.727 83.0824L111.01 125.583C104.841 132.829 96.9234 138.384 87.4725 142.1C79.2943 145.316 70.163 147 60.9617 147C60.3892 147 59.8175 146.994 59.2444 146.98C39.5803 146.532 21.9171 138.627 11.9957 125.836ZM17.235 89.1885C17.5441 84.1047 15.7425 80.4682 14.1532 77.2599C12.5756 74.0755 11.0854 71.0675 12.092 67.4657C13.2928 63.17 17.7104 60.7658 21.9831 58.4407C24.8184 56.8977 27.7499 55.3023 29.5011 53.244C31.2873 51.1449 32.1842 48.4018 33.0516 45.7491C34.2912 41.9583 35.5731 38.0386 39.4573 36.0185C43.4975 33.917 48.4859 34.8641 53.3101 35.7793C56.3222 36.351 59.168 36.8912 61.714 36.7223C64.1497 36.5613 67.0816 35.4967 70.1861 34.3697C75.6648 32.3805 81.3305 30.3231 86.0433 32.4453C90.7106 34.5467 91.2359 42.0359 91.744 49.2782C92.0765 54.0167 92.4203 58.9164 93.8956 61.8056C95.6739 65.2881 99.2544 67.4106 102.717 69.463C106.375 71.6313 109.83 73.6794 110.995 77.2085C112.466 81.664 110.673 87.0949 108.939 92.3469C108.07 94.981 107.248 97.4689 106.954 99.5607C106.712 101.287 106.671 103.275 106.628 105.379C106.511 111.164 106.378 117.722 102.055 122.544C98.1782 126.869 89.6156 127.151 81.3351 127.424C76.7667 127.574 72.4521 127.716 69.2026 128.511C65.0606 129.524 61.756 131.827 58.5604 134.054C55.2176 136.383 52.044 138.594 48.5317 138.594C48.2059 138.594 47.8772 138.575 47.5453 138.535C42.9506 137.986 40.3031 134.839 37.9671 132.063C36.6604 130.509 35.4261 129.042 33.957 128.089C32.7005 127.274 30.629 126.667 28.2303 125.964C22.7808 124.367 15.9989 122.379 12.9518 116.241C10.2483 110.796 12.2057 105.674 14.2783 100.251C15.6139 96.7581 16.9943 93.1455 17.235 89.1885ZM19.564 89.3299C19.3017 93.6442 17.8562 97.4266 16.4583 101.084C14.4918 106.23 12.7934 110.674 15.0425 115.204C17.6354 120.428 23.8742 122.256 28.8872 123.725C31.4617 124.48 33.6848 125.131 35.2275 126.132C36.9883 127.274 38.3938 128.945 39.7533 130.561C42.0111 133.244 44.1435 135.778 47.8229 136.219C50.8522 136.581 53.8065 134.523 57.2272 132.139C60.4414 129.899 64.0844 127.361 68.649 126.244C72.1339 125.392 76.5664 125.246 81.259 125.091C89.0501 124.835 97.1066 124.569 100.318 120.987C104.063 116.809 104.187 110.711 104.296 105.332C104.34 103.156 104.382 101.1 104.644 99.2358C104.967 96.936 105.821 94.3513 106.724 91.6151C108.339 86.7227 110.01 81.6637 108.78 77.94C107.889 75.241 104.799 73.4093 101.527 71.47C97.9539 69.3516 93.9035 66.9506 91.8177 62.8667C90.1261 59.554 89.7653 54.413 89.4167 49.4413C88.9565 42.8829 88.4808 36.101 85.0854 34.5724C81.2366 32.8399 76.0236 34.7322 70.9826 36.5625C67.718 37.7478 64.6344 38.8672 61.8683 39.0501C59.0242 39.2382 55.8984 38.645 52.8752 38.0712C50.3173 37.5859 47.7086 37.091 45.3216 37.091C43.571 37.091 41.94 37.357 40.5341 38.0882C37.4949 39.6687 36.4636 42.8222 35.2695 46.4739C34.3318 49.3412 33.3622 52.3063 31.278 54.7557C29.2459 57.1439 26.1204 58.8449 23.0981 60.4896C19.0748 62.6792 15.2744 64.7477 14.3393 68.0934C13.5737 70.8333 14.752 73.2118 16.2439 76.2236C17.8775 79.5215 19.9108 83.6258 19.564 89.3299ZM22.5938 101.691L22.5982 101.695C22.6787 101.612 22.7674 101.536 22.8709 101.478C23.1655 101.316 23.5155 101.289 23.8314 101.403C27.4104 102.7 29.9459 104.894 31.3681 107.924C32.7072 110.777 33.0589 114.412 32.4137 118.728C32.3592 119.093 32.1352 119.41 31.8097 119.585C31.6382 119.676 31.4492 119.722 31.2599 119.722C31.0899 119.722 30.9198 119.685 30.762 119.611C30.7603 119.61 30.7582 119.609 30.7565 119.608C29.2109 118.869 27.5099 118.561 25.8649 118.263C22.9593 117.737 19.9545 117.194 18.1196 114.248C15.2117 109.579 21.8296 102.484 22.5938 101.691ZM24.3193 104.128C23.885 107.051 24.2015 109.597 25.2646 111.712C26.2601 113.694 27.9515 115.38 30.3035 116.74C30.5809 113.617 30.2303 110.991 29.2561 108.915C28.2633 106.8 26.6416 105.225 24.3193 104.128ZM20.1003 113.014C21.2323 114.831 23.0377 115.353 25.3145 115.789C24.4413 114.861 23.7272 113.85 23.1795 112.76C22.2391 110.888 21.7801 108.77 21.7996 106.433C20.3211 108.647 19.0696 111.359 20.1003 113.014ZM30.1982 98.8126C29.6618 98.4553 28.9376 98.6008 28.5806 99.1372C28.2236 99.6736 28.3689 100.398 28.9052 100.755C33.4308 103.767 35.5833 107.915 35.4853 113.436C35.4739 114.08 35.987 114.612 36.6313 114.624C36.6383 114.624 36.6453 114.624 36.6523 114.624C37.287 114.624 37.807 114.115 37.8184 113.478C37.9301 107.187 35.366 102.253 30.1982 98.8126ZM57.0525 126.723C55.6198 128.696 53.6374 130.002 51.6135 130.307C51.3177 130.352 51.0269 130.374 50.7431 130.374C49.6733 130.374 48.6959 130.06 47.8798 129.448C45.2842 127.501 45.2253 123.257 47.7459 119.787C49.1786 117.814 51.1608 116.507 53.185 116.202C54.5946 115.989 55.8858 116.287 56.9189 117.062C59.5142 119.009 59.5728 123.252 57.0525 126.723ZM55.5183 118.928C55.0458 118.574 54.5083 118.47 54.0419 118.47C53.8581 118.47 53.6855 118.486 53.5321 118.51C52.1428 118.719 50.6854 119.709 49.6333 121.158C47.9288 123.505 47.7666 126.446 49.2795 127.581C49.9384 128.075 50.7233 128.082 51.2658 128C52.655 127.79 54.1125 126.8 55.1648 125.351C56.869 123.005 57.0312 120.063 55.5183 118.928ZM56.202 109.776C51.5572 109.319 46.7099 113.216 46.5057 113.382C46.0064 113.788 45.9312 114.522 46.3372 115.022C46.7432 115.522 47.4776 115.598 47.9778 115.192C48.0204 115.158 52.2895 111.736 55.973 112.099C59.4121 112.438 61.0151 116.4 61.0297 116.437C61.2091 116.899 61.6501 117.182 62.1176 117.182C62.2579 117.182 62.4008 117.157 62.5394 117.103C63.1402 116.87 63.438 116.194 63.205 115.593C63.1204 115.375 61.0799 110.257 56.202 109.776ZM50.2027 107.755C50.6775 107.755 51.124 107.462 51.2976 106.991L53.4871 101.043C53.7097 100.438 53.3999 99.7672 52.7953 99.5447C52.1913 99.3227 51.5201 99.6319 51.2973 100.236L49.1077 106.184C48.8852 106.789 49.1949 107.46 49.7996 107.682C49.9329 107.731 50.0688 107.755 50.2027 107.755ZM56.0206 107.03C56.1437 107.072 56.2691 107.091 56.3922 107.091C56.8795 107.091 57.334 106.783 57.4979 106.296L59.5612 100.155C59.7665 99.5447 59.4378 98.8832 58.8267 98.6781C58.2163 98.4731 57.5545 98.8018 57.3494 99.4125L55.2862 105.553C55.0811 106.164 55.4098 106.825 56.0206 107.03ZM95.2711 109.037C96.9771 113.26 95.4992 117.891 91.977 119.361C91.251 119.664 90.4755 119.815 89.6862 119.815C88.8357 119.815 87.9695 119.639 87.1309 119.289C85.0846 118.434 83.3824 116.635 82.461 114.354C80.7547 110.132 82.2326 105.501 85.7548 104.031C87.263 103.402 88.9842 103.427 90.6009 104.103C92.6473 104.958 94.3494 106.756 95.2711 109.037ZM87.569 116.914C87.9447 115.928 88.4195 114.197 88.2506 112.025C88.064 109.622 86.7205 107.589 85.9371 106.59C84.134 107.884 83.5291 110.771 84.6237 113.48C85.2406 115.006 86.2985 116.231 87.569 116.914ZM93.1075 109.911C92.4177 108.204 91.1764 106.872 89.7011 106.256C89.2458 106.065 88.7905 105.958 88.3437 105.923C89.2726 107.277 90.3848 109.373 90.5767 111.844C90.7642 114.258 90.2967 116.218 89.849 117.477C90.2725 117.458 90.6852 117.371 91.0778 117.207C93.4266 116.227 94.3369 112.954 93.1075 109.911ZM76.4943 114.377C76.5967 114.941 77.0873 115.335 77.6406 115.335C77.7094 115.335 77.7791 115.329 77.8491 115.316C78.4826 115.202 78.9038 114.596 78.7903 113.962C78.7722 113.862 77.0753 103.945 83.4527 100.941C89.9164 97.8962 97.5362 105.071 97.6115 105.144C98.0761 105.589 98.8146 105.575 99.2612 105.109C99.7071 104.644 99.6919 103.906 99.2267 103.46C98.8691 103.117 90.3769 95.1005 82.4584 98.8298C74.4564 102.6 76.4074 113.898 76.4943 114.377ZM100.979 97.4415L95.3869 93.2887C94.8698 92.9046 94.1391 93.0125 93.7547 93.5299C93.3706 94.047 93.4785 94.778 93.9959 95.1621L99.5884 99.3148C99.7975 99.47 100.041 99.545 100.283 99.545C100.64 99.545 100.992 99.3819 101.221 99.0736C101.604 98.5565 101.497 97.8256 100.979 97.4415ZM93.7156 85.9475C90.5257 82.7059 89.8773 78.2857 92.2398 75.885C93.1653 74.9443 94.4294 74.447 95.895 74.447C98.0291 74.447 100.384 75.5452 102.194 77.3844C105.384 80.6263 106.032 85.0465 103.67 87.4469C102.745 88.3875 101.48 88.8848 100.015 88.8848C97.8804 88.8851 95.5257 87.787 93.7156 85.9475ZM95.379 84.3109C96.7595 85.7141 98.4926 86.5518 100.015 86.5518C100.591 86.5518 101.404 86.4235 102.007 85.8107C103.417 84.3768 102.742 81.2677 100.531 79.0209C99.1503 77.618 97.4172 76.7804 95.895 76.7804C95.3187 76.7804 94.5055 76.9087 93.9029 77.5215C92.4924 78.955 93.1682 82.0642 95.379 84.3109ZM88.9527 87.8681C89.1443 87.8681 89.3388 87.8208 89.5179 87.7214C90.0814 87.4084 90.2842 86.6982 89.9715 86.135C88.2279 82.9955 87.5285 79.8047 87.8919 76.6506C87.9657 76.0104 87.5066 75.4317 86.8664 75.3579C86.2259 75.2838 85.6475 75.7432 85.5737 76.3834C85.1534 80.0316 85.9464 83.6935 87.9313 87.2678C88.1448 87.6517 88.5426 87.8681 88.9527 87.8681ZM67.3426 57.3452C66.0555 51.5699 68.8599 45.9847 73.594 44.8954C75.584 44.4372 77.7123 44.8347 79.5848 46.0157C82.0258 47.5551 83.8292 50.2486 84.5327 53.4053C85.8196 59.1806 83.0152 64.7657 78.2811 65.8551C77.7421 65.9791 77.1932 66.0406 76.6416 66.0406C75.1567 66.0406 73.6555 65.5958 72.2905 64.7348C69.8495 63.1954 68.0461 60.5019 67.3426 57.3452ZM73.3918 47.397C75.1468 48.5196 77.5852 50.696 78.5474 54.4772C79.4912 58.1857 78.8385 61.4743 78.1962 63.457C81.4127 62.4047 83.2211 58.2476 82.2551 53.9131C81.686 51.3587 80.2589 49.1998 78.34 47.9894C77.3428 47.3605 76.2928 47.04 75.2524 47.04C74.8718 47.04 74.4923 47.0829 74.1172 47.1692C73.8672 47.2267 73.626 47.3042 73.3918 47.397ZM69.6202 56.8377C70.1893 59.3921 71.6164 61.551 73.5353 62.7614C74.2234 63.1954 74.9362 63.4812 75.654 63.6175C76.2149 62.2122 77.2538 58.8551 76.2861 55.0527C75.3358 51.3187 72.5614 49.5247 71.3006 48.8842C69.6564 50.7328 68.9299 53.7402 69.6202 56.8377ZM28.5987 70.3258C31.8231 66.5732 36.0698 64.2588 40.25 63.9759C43.1699 63.7782 45.7591 64.6004 47.734 66.3533C52.6369 70.7047 52.0542 79.5652 46.4346 86.1052C43.2102 89.8578 38.9635 92.1722 34.7836 92.4548C34.4992 92.4741 34.2183 92.4837 33.9406 92.4837C31.3646 92.4837 29.0823 91.66 27.2993 90.0775C22.3964 85.7261 22.9791 76.8655 28.5987 70.3258ZM48.7533 74.2566C47.4957 73.4548 43.6859 71.4298 40.0488 73.5814C38.0065 74.7895 36.9547 77.3252 35.737 80.2617C34.4592 83.3432 33.0318 86.7822 30.0807 89.2051C31.3769 89.9249 32.921 90.2414 34.6261 90.127C38.134 89.8896 41.8869 87.8179 44.665 84.5848C47.4178 81.3805 48.812 77.579 48.7533 74.2566ZM28.219 87.694C30.9746 85.6415 32.3 82.458 33.5816 79.368C34.902 76.1842 36.1489 73.1771 38.8608 71.5732C42.4352 69.459 46.037 70.3576 48.2905 71.3705C47.8731 70.0965 47.174 68.9765 46.1852 68.0989C44.8383 66.9034 43.0853 66.2812 41.0839 66.2812C40.8614 66.2812 40.6359 66.2888 40.4075 66.3046C36.8996 66.5417 33.1467 68.6137 30.3686 71.8468C25.8474 77.1079 24.9852 83.9831 28.219 87.694ZM42.0123 95.8137C41.4616 96.1479 41.286 96.8648 41.62 97.4158C41.8393 97.7778 42.2243 97.9778 42.6187 97.9778C42.8246 97.9778 43.0331 97.9233 43.2224 97.8087C43.5634 97.6022 51.6158 92.6631 55.4518 85.3597C59.2841 78.0634 58.9971 70.7741 58.9831 70.4673C58.9536 69.8238 58.4041 69.323 57.7653 69.356C57.1222 69.3849 56.624 69.9297 56.652 70.5731C56.655 70.6422 56.9134 77.5585 53.3859 84.2747C49.8567 90.9947 42.0902 95.7664 42.0123 95.8137ZM33.6805 62.6202C34.015 62.6202 34.3475 62.477 34.5782 62.1994L39.8767 55.8256C40.2885 55.33 40.2209 54.5945 39.7253 54.1826C39.2298 53.7708 38.4942 53.8385 38.0823 54.334L32.7839 60.7078C32.372 61.2033 32.4397 61.9389 32.9352 62.3507C33.1534 62.5319 33.4177 62.6202 33.6805 62.6202ZM40.4539 61.4154C40.677 61.6172 40.957 61.717 41.2362 61.717C41.5544 61.717 41.8714 61.5875 42.1018 61.3328L46.0522 56.9654C46.4845 56.4877 46.4474 55.75 45.9697 55.3178C45.4919 54.8855 44.7543 54.9226 44.322 55.4003L40.3716 59.7677C39.9391 60.2455 39.9758 60.9831 40.4539 61.4154ZM53.9273 55.1162C54.0104 55.1343 54.0935 55.1431 54.1755 55.1431C54.7127 55.1431 55.1963 54.7695 55.3144 54.2232L57.0429 46.2437C57.1794 45.614 56.7795 44.9928 56.1495 44.8566C55.521 44.7201 54.8985 45.12 54.7623 45.75L53.0339 53.7294C52.8977 54.3588 53.2976 54.9797 53.9273 55.1162ZM59.9966 53.7775C60.0485 53.7842 60.0999 53.7877 60.1506 53.7877C60.7272 53.7877 61.2283 53.3607 61.3059 52.7736L62.3924 44.543C62.4767 43.9043 62.0272 43.318 61.3885 43.2337C60.7491 43.1497 60.1634 43.5989 60.0792 44.2377L58.9927 52.4682C58.9084 53.107 59.3582 53.6932 59.9966 53.7775ZM72.5708 25.0731C72.7653 25.5057 73.1906 25.762 73.6357 25.762C73.7955 25.762 73.9577 25.7291 74.1131 25.6594L121.857 4.21428C122.444 3.95032 122.707 3.25994 122.443 2.67194C122.179 2.08424 121.489 1.82203 120.901 2.08569L73.157 23.5308C72.569 23.7947 72.3068 24.4851 72.5708 25.0731ZM94.4687 33.8908C94.6539 33.8908 94.8421 33.8465 95.0168 33.7531L121.928 19.3984C122.496 19.0951 122.711 18.3884 122.408 17.8199C122.105 17.2515 121.398 17.0365 120.83 17.3399L93.9183 31.6945C93.3499 31.9979 93.1349 32.7046 93.4383 33.273C93.6483 33.6665 94.0516 33.8908 94.4687 33.8908ZM98.8511 51.2155C99.0789 51.5337 99.437 51.7032 99.8007 51.7032C100.036 51.7032 100.273 51.6323 100.479 51.485L144.61 19.894C145.134 19.5189 145.254 18.79 144.879 18.2662C144.505 17.7424 143.776 17.6216 143.252 17.9967L99.1209 49.588C98.5967 49.9631 98.476 50.692 98.8511 51.2155ZM136.569 53.2586C136.173 52.7505 135.441 52.6595 134.932 53.0559L115.533 68.1794C115.024 68.5755 114.934 69.3087 115.33 69.8168C115.56 70.112 115.904 70.2663 116.251 70.2663C116.501 70.2663 116.754 70.1858 116.968 70.0198L136.367 54.8963C136.875 54.5 136.966 53.767 136.569 53.2586ZM118.065 94.017C118.347 94.017 118.63 93.9155 118.854 93.7096L144.72 69.9586C145.195 69.5228 145.226 68.7849 144.79 68.3101C144.354 67.8355 143.616 67.8043 143.142 68.2398L117.276 91.9908C116.801 92.4265 116.77 93.1645 117.206 93.6393C117.436 93.8901 117.75 94.017 118.065 94.017Z" fill="#FFA800"/>
</svg>
