<svg width="188" height="187" viewBox="0 0 188 187" fill="none" xmlns="http://www.w3.org/2000/svg">
<path d="M15.3686 160.077C1.08372 141.739 -3.72733 113.002 3.11121 86.8645C9.43403 62.6984 24.422 44.5271 45.3144 35.6981L132.537 0.111291C133.298 -0.199633 134.169 0.163236 134.481 0.921996C134.793 1.68038 134.429 2.54711 133.667 2.85804L46.4621 38.4378C26.4577 46.8917 12.0805 64.3584 5.99613 87.6132C-0.618091 112.892 3.98578 140.622 17.7244 158.258C29.8554 173.832 51.5664 183.458 75.8013 184.008C101.617 184.591 124.87 175.056 139.593 157.839L185.216 103.78C185.746 103.153 186.686 103.071 187.316 103.599C187.946 104.126 188.028 105.062 187.499 105.69L141.868 159.756C133.986 168.973 123.871 176.04 111.796 180.767C101.348 184.858 89.6822 187 77.9268 187C77.1953 187 76.465 186.992 75.7327 186.975C50.6102 186.404 28.044 176.349 15.3686 160.077ZM22.0622 113.457C22.4571 106.99 20.1554 102.364 18.1249 98.283C16.1094 94.232 14.2056 90.4056 15.4915 85.8237C17.0257 80.3592 22.6696 77.3007 28.1282 74.3429C31.7506 72.3801 35.4959 70.3506 37.7332 67.7322C40.0152 65.0619 41.161 61.5723 42.2693 58.1978C43.8529 53.3755 45.4907 48.3892 50.453 45.8194C55.6147 43.1462 61.9878 44.3509 68.1512 45.5152C71.9993 46.2424 75.6351 46.9296 78.8878 46.7147C81.9997 46.5099 85.7454 45.1557 89.7117 43.722C96.7112 41.1916 103.95 38.5743 109.971 41.2739C115.933 43.9472 116.605 53.4742 117.254 62.6873C117.678 68.7151 118.118 74.948 120.003 78.6235C122.274 83.0536 126.849 85.7536 131.272 88.3645C135.946 91.1228 140.36 93.7282 141.849 98.2177C143.728 103.886 141.437 110.794 139.222 117.475C138.111 120.826 137.062 123.991 136.686 126.652C136.376 128.849 136.325 131.377 136.27 134.054C136.12 141.413 135.95 149.755 130.427 155.89C125.474 161.391 114.535 161.75 103.956 162.097C98.119 162.288 92.6066 162.469 88.4551 163.48C83.1634 164.769 78.9415 167.698 74.8589 170.531C70.5882 173.494 66.5336 176.306 62.0463 176.306C61.6301 176.306 61.2101 176.282 60.7861 176.232C54.916 175.533 51.5336 171.53 48.5492 167.998C46.8798 166.022 45.3029 164.156 43.4259 162.943C41.8206 161.907 39.1742 161.134 36.1096 160.24C29.1474 158.208 20.4829 155.68 16.5901 147.872C13.1361 140.944 15.6369 134.429 18.2848 127.53C19.9911 123.087 21.7547 118.491 22.0622 113.457ZM25.0376 113.637C24.7026 119.126 22.8559 123.937 21.0698 128.59C18.5576 135.136 16.3877 140.789 19.2611 146.552C22.5738 153.197 30.5444 155.523 36.9488 157.392C40.238 158.352 43.0782 159.181 45.0491 160.453C47.2987 161.907 49.0944 164.032 50.8312 166.087C53.7158 169.501 56.4401 172.725 61.1408 173.285C65.011 173.746 68.7854 171.127 73.1556 168.095C77.262 165.246 81.9162 162.017 87.7479 160.597C92.2001 159.512 97.863 159.327 103.858 159.13C113.812 158.803 124.105 158.466 128.208 153.908C132.993 148.593 133.151 140.837 133.29 133.994C133.347 131.225 133.4 128.611 133.735 126.239C134.148 123.313 135.238 120.025 136.392 116.544C138.456 110.321 140.59 103.885 139.019 99.1482C137.88 95.7147 133.932 93.3846 129.753 90.9176C125.187 88.2228 120.013 85.1685 117.348 79.9733C115.187 75.7591 114.726 69.2193 114.28 62.8947C113.692 54.5517 113.085 45.9244 108.747 43.9799C103.83 41.7759 97.1695 44.1832 90.7293 46.5114C86.5584 48.0193 82.619 49.4433 79.0849 49.6759C75.4514 49.9153 71.4579 49.1606 67.5956 48.4308C64.3276 47.8134 60.9948 47.1837 57.9451 47.1837C55.7086 47.1837 53.6248 47.5221 51.8288 48.4523C47.9459 50.4629 46.6283 54.4745 45.1027 59.1198C43.9047 62.7674 42.6661 66.5393 40.0033 69.6553C37.4072 72.6933 33.414 74.8571 29.5528 76.9494C24.4127 79.7347 19.5573 82.3661 18.3627 86.6222C17.3845 90.1076 18.8899 93.1334 20.796 96.9647C22.8831 101.16 25.4807 106.381 25.0376 113.637ZM28.9063 129.364C28.9078 129.363 28.9098 129.363 28.9113 129.365V129.365C28.9129 129.366 28.9154 129.366 28.9169 129.365C29.019 129.259 29.1314 129.164 29.2625 129.092C29.6389 128.885 30.086 128.85 30.4896 128.996C35.0622 130.645 38.3015 133.436 40.1184 137.291C41.8292 140.921 42.2786 145.545 41.4543 151.035C41.3846 151.499 41.0984 151.903 40.6826 152.124C40.4635 152.241 40.222 152.3 39.9802 152.3C39.7629 152.3 39.5457 152.252 39.3441 152.158C39.3419 152.157 39.3392 152.156 39.337 152.155C37.3624 151.214 35.1892 150.823 33.0876 150.444C29.3754 149.775 25.5366 149.083 23.1924 145.336C19.48 139.401 27.9195 130.385 28.9063 129.364ZM36.2916 136.626C34.3384 133.906 30.5097 135.877 31.2579 139.141C31.4991 140.194 31.8535 141.184 32.3207 142.11C32.5271 142.519 32.7568 142.918 33.0097 143.307C35 146.369 39.2024 144.261 38.2265 140.742C38.0112 139.966 37.7424 139.236 37.4202 138.552C37.0967 137.866 36.7211 137.225 36.2916 136.626ZM25.7229 143.766C26.3097 144.704 27.0381 145.371 27.8909 145.869C29.1742 146.619 30.3261 144.77 29.6568 143.443V143.443V143.443C28.5421 141.234 24.6568 140.731 25.4098 143.087C25.4861 143.326 25.5895 143.553 25.7229 143.766ZM38.6238 125.7C37.9385 125.246 37.0133 125.431 36.5572 126.113C36.1011 126.796 36.2866 127.717 36.9719 128.171C42.7537 132.003 45.5037 137.28 45.3785 144.304C45.364 145.123 46.0194 145.799 46.8426 145.814C46.8515 145.814 46.8605 145.814 46.8694 145.814C47.6802 145.814 48.3446 145.166 48.3592 144.356C48.5019 136.353 45.2261 130.076 38.6238 125.7ZM72.9324 161.205C71.102 163.715 68.5693 165.377 65.9836 165.765C65.6057 165.822 65.2342 165.85 64.8716 165.85C63.5048 165.85 62.2561 165.45 61.2135 164.671C57.8974 162.195 57.8222 156.797 61.0425 152.382C62.8728 149.872 65.4052 148.21 67.9913 147.822C69.7922 147.551 71.4419 147.93 72.7617 148.915C76.0774 151.392 76.1523 156.79 72.9324 161.205ZM70.9724 151.29C70.3687 150.839 69.6819 150.707 69.0861 150.707C68.8513 150.707 68.6307 150.728 68.4347 150.757C66.6599 151.024 64.7978 152.283 63.4538 154.126C61.2761 157.112 61.0689 160.853 63.0018 162.297C63.8435 162.925 64.8463 162.934 65.5394 162.83C67.3142 162.563 69.1763 161.304 70.5207 159.461C72.698 156.475 72.9052 152.733 70.9724 151.29ZM71.8458 139.647C65.9116 139.066 59.7189 144.023 59.458 144.234C58.8201 144.751 58.7239 145.684 59.2426 146.32C59.7613 146.956 60.6996 147.053 61.3387 146.537C61.3931 146.493 66.8473 142.141 71.5533 142.602C75.947 143.033 77.995 148.074 78.0136 148.121C78.2428 148.708 78.8062 149.068 79.4035 149.068C79.5828 149.068 79.7654 149.036 79.9424 148.967C80.71 148.671 81.0904 147.811 80.7927 147.047C80.6846 146.769 78.0777 140.259 71.8458 139.647ZM64.1811 137.075C64.7878 137.075 65.3583 136.704 65.58 136.104L68.3773 128.537C68.6617 127.768 68.2659 126.915 67.4935 126.632C66.7217 126.349 65.8643 126.743 65.5796 127.512L62.7823 135.078C62.498 135.847 62.8937 136.701 63.6662 136.984C63.8365 137.046 64.0101 137.075 64.1811 137.075ZM71.614 136.154C71.7713 136.207 71.9315 136.232 72.0888 136.232C72.7114 136.232 73.292 135.84 73.5014 135.22L76.1374 127.409C76.3997 126.632 75.9798 125.79 75.1991 125.529C74.4192 125.268 73.5737 125.687 73.3117 126.464L70.6757 134.275C70.4138 135.052 70.8337 135.893 71.614 136.154ZM121.76 138.707C123.939 144.079 122.051 149.97 117.551 151.84C116.624 152.225 115.633 152.417 114.625 152.417C113.538 152.417 112.431 152.194 111.36 151.748C108.746 150.661 106.571 148.373 105.394 145.471C103.214 140.1 105.102 134.209 109.602 132.339C111.529 131.538 113.728 131.571 115.793 132.43C118.408 133.518 120.582 135.805 121.76 138.707ZM108.236 144.548C109.427 147.315 112.928 146.172 112.827 143.163C112.82 142.948 112.808 142.73 112.791 142.508C112.714 141.523 112.484 140.588 112.173 139.729C111.266 137.218 107.949 136.997 107.549 139.637C107.326 141.11 107.508 142.759 108.157 144.36C108.183 144.423 108.209 144.486 108.236 144.548ZM118.996 139.819C118.114 137.648 116.528 135.953 114.644 135.169V135.169C113.979 134.892 113.505 135.639 113.855 136.267C114.754 137.883 115.581 139.949 115.762 142.278C115.935 144.49 115.673 146.403 115.299 147.898C115.112 148.646 115.69 149.396 116.403 149.101V149.101C119.403 147.854 120.566 143.69 118.996 139.819ZM97.7709 145.5C97.9017 146.217 98.5285 146.719 99.2354 146.719C99.3233 146.719 99.4124 146.711 99.5018 146.695C100.311 146.549 100.849 145.778 100.704 144.972C100.681 144.845 98.5132 132.23 106.661 128.408C114.919 124.535 124.654 133.662 124.75 133.754C125.343 134.321 126.287 134.302 126.857 133.711C127.427 133.119 127.408 132.18 126.814 131.612C126.357 131.176 115.507 120.978 105.391 125.722C95.1674 130.518 97.6599 144.89 97.7709 145.5ZM129.053 123.956L121.908 118.673C121.247 118.185 120.314 118.322 119.823 118.98C119.332 119.638 119.47 120.568 120.131 121.057L127.276 126.339C127.543 126.537 127.854 126.632 128.163 126.632C128.619 126.632 129.068 126.425 129.361 126.032C129.851 125.375 129.713 124.445 129.053 123.956ZM119.773 109.335C115.697 105.211 114.869 99.5879 117.887 96.5339C119.069 95.3373 120.684 94.7047 122.557 94.7047C125.283 94.7047 128.292 96.1017 130.605 98.4414C134.68 102.565 135.508 108.188 132.49 111.242C131.308 112.439 129.693 113.071 127.82 113.071C125.093 113.072 122.085 111.675 119.773 109.335ZM121.898 107.253C123.661 109.038 125.876 110.103 127.82 110.103C128.557 110.103 129.596 109.94 130.365 109.161C132.167 107.337 131.304 103.381 128.48 100.523C126.716 98.7386 124.502 97.673 122.557 97.673C121.821 97.673 120.782 97.8362 120.012 98.6158C118.21 100.439 119.073 104.395 121.898 107.253ZM113.688 111.778C113.932 111.778 114.181 111.718 114.41 111.591C115.13 111.193 115.389 110.29 114.989 109.573C112.762 105.579 111.868 101.52 112.332 97.5079C112.427 96.6935 111.84 95.9573 111.022 95.8635C110.204 95.7692 109.465 96.3536 109.371 97.168C108.834 101.809 109.847 106.467 112.383 111.014C112.655 111.502 113.164 111.778 113.688 111.778ZM86.0789 72.9493C84.4344 65.6025 88.0173 58.4976 94.0655 57.1118C96.608 56.5289 99.327 57.0346 101.719 58.5369C104.838 60.4952 107.142 63.9217 108.041 67.9374C109.685 75.2842 106.102 82.3891 100.054 83.7749C99.3651 83.9326 98.6638 84.0109 97.9591 84.0109C96.0621 84.0109 94.1441 83.445 92.4002 82.3497C89.2816 80.3914 86.9776 76.965 86.0789 72.9493ZM94.734 60.0044C94.3395 60.0947 94.2825 60.6026 94.6101 60.8402C96.74 62.385 99.3058 65.0433 100.394 69.3009C100.543 69.8834 100.661 70.4578 100.751 71.0219C101.399 75.0581 104.853 77.2023 105.364 73.1464C105.546 71.7007 105.482 70.1511 105.131 68.5834C104.404 65.3339 102.581 62.5875 100.129 61.0477C98.8549 60.2478 97.5135 59.84 96.1843 59.84C95.698 59.84 95.2132 59.8945 94.734 60.0044V60.0044ZM88.9887 72.3037C89.7157 75.5532 91.539 78.2996 93.9906 79.8393V79.8393C95.4347 80.7463 97.1863 79.7914 97.5594 78.1274C98.0369 75.9976 98.2969 73.1315 97.5049 70.033C96.8617 67.5165 95.5644 65.6927 94.2471 64.4127C92.6227 62.8344 89.974 63.3574 89.2583 65.5062C88.5873 67.521 88.4486 69.8908 88.9887 72.3037ZM36.5803 89.4621C40.6997 84.6884 46.1252 81.7442 51.4658 81.3843C55.1962 81.1328 58.5041 82.1787 61.0272 84.4086C67.2911 89.944 66.5466 101.216 59.3671 109.535C55.2477 114.309 49.8221 117.253 44.4819 117.613C44.1186 117.637 43.7598 117.649 43.405 117.649C40.1139 117.649 37.1981 116.602 34.9202 114.588C28.6563 109.053 29.4008 97.7813 36.5803 89.4621ZM62.1401 97.1431C62.3976 95.4829 61.4967 93.8635 59.9349 93.2444C57.6643 92.3442 54.385 91.7326 51.2087 93.6035C48.5995 95.1403 47.2558 98.3661 45.7001 102.102C44.7658 104.345 43.7689 106.737 42.3804 108.951C40.8515 111.389 41.4099 114.843 44.2807 114.651V114.651C48.7624 114.349 53.557 111.714 57.1063 107.601C59.8979 104.366 61.5959 100.651 62.1401 97.1431ZM34.0035 107.494C34.652 110.017 37.7719 110.371 39.2743 108.243C40.8298 106.04 41.8995 103.478 42.9463 100.965C44.6332 96.9146 46.2262 93.0893 49.691 91.049C52.187 89.5789 54.6935 89.2538 56.9234 89.4717C58.8386 89.6588 60.4904 87.9036 59.0485 86.6292V86.6292C57.3277 85.1084 55.0882 84.317 52.5312 84.317C52.2468 84.317 51.9588 84.3266 51.667 84.3466C47.1854 84.6483 42.3907 87.2841 38.8414 91.397C34.4674 96.465 32.774 102.71 34.0035 107.494ZM53.7173 121.885C53.0137 122.311 52.7894 123.223 53.2161 123.923C53.4963 124.384 53.9882 124.638 54.492 124.638C54.755 124.638 55.0215 124.569 55.2633 124.423C55.6989 124.161 65.9865 117.878 70.8874 108.587C75.7834 99.3051 75.4167 90.0323 75.3989 89.642C75.3612 88.8235 74.6592 88.1865 73.8431 88.2284C73.0215 88.2651 72.385 88.9582 72.4208 89.7767C72.4245 89.8646 72.7547 98.6629 68.248 107.207C63.7392 115.755 53.8167 121.825 53.7173 121.885ZM43.0726 79.6598C43.5001 79.6598 43.9249 79.4776 44.2196 79.1244L50.9888 71.0162C51.515 70.3858 51.4285 69.4501 50.7954 68.9262C50.1623 68.4023 49.2226 68.4884 48.6964 69.1188L41.9272 77.2269C41.401 77.8573 41.4875 78.793 42.1206 79.3169C42.3993 79.5473 42.7369 79.6598 43.0726 79.6598ZM51.7263 78.127C52.0113 78.3838 52.3691 78.5107 52.7257 78.5107C53.1322 78.5107 53.5373 78.3459 53.8317 78.022L58.8786 72.4662C59.4308 71.8585 59.3835 70.9201 58.7731 70.3702C58.1628 69.8204 57.2204 69.8675 56.6681 70.4752L51.6212 76.0311C51.0686 76.6388 51.1155 77.5772 51.7263 78.127ZM68.9396 70.1139C69.0458 70.1369 69.152 70.148 69.2568 70.148C69.9431 70.148 70.561 69.6727 70.7119 68.9778L72.9201 58.8271C73.0945 58.026 72.5836 57.2357 71.7787 57.0624C70.9757 56.8888 70.1805 57.3975 70.0065 58.1989L67.7983 68.3496C67.6243 69.1503 68.1351 69.9402 68.9396 70.1139ZM76.6938 68.4108C76.7601 68.4194 76.8257 68.4238 76.8905 68.4238C77.6272 68.4238 78.2674 67.8806 78.3665 67.1337L79.7545 56.6636C79.8622 55.851 79.288 55.1053 78.472 54.998C77.6551 54.8912 76.9069 55.4626 76.7992 56.2751L75.4112 66.7453C75.3035 67.5578 75.8781 68.3036 76.6938 68.4108ZM92.7583 31.8957C93.0068 32.446 93.5501 32.7721 94.1188 32.7721C94.323 32.7721 94.5302 32.7302 94.7288 32.6415L155.725 5.36102C156.476 5.02524 156.812 4.147 156.474 3.399C156.137 2.65137 155.255 2.31782 154.504 2.65323L93.5073 29.9337C92.7561 30.2695 92.4211 31.1477 92.7583 31.8957ZM120.735 43.1128C120.971 43.1128 121.212 43.0564 121.435 42.9376L155.816 24.6769C156.542 24.2911 156.817 23.3921 156.43 22.6689C156.042 21.9458 155.139 21.6723 154.413 22.0582L120.032 40.3189C119.305 40.7048 119.031 41.6038 119.418 42.3269C119.687 42.8274 120.202 43.1128 120.735 43.1128ZM126.334 65.1517C126.625 65.5565 127.082 65.772 127.547 65.772C127.847 65.772 128.151 65.6819 128.413 65.4945L184.794 25.3073C185.464 24.8302 185.618 23.903 185.139 23.2366C184.66 22.5702 183.729 22.4166 183.059 22.8938L126.678 63.0813C126.009 63.5585 125.854 64.4857 126.334 65.1517ZM174.522 67.7508C174.016 67.1044 173.08 66.9887 172.43 67.4929L147.646 86.7316C146.996 87.2355 146.88 88.1683 147.387 88.8146C147.681 89.1901 148.12 89.3864 148.563 89.3864C148.883 89.3864 149.206 89.284 149.479 89.0728L174.263 69.8341C174.912 69.3299 175.028 68.3975 174.522 67.7508ZM150.881 119.6C151.241 119.6 151.603 119.471 151.889 119.209L184.935 88.9949C185.541 88.4406 185.582 87.5019 185.025 86.8979C184.468 86.2942 183.525 86.2545 182.919 86.8084L149.873 117.022C149.266 117.577 149.226 118.515 149.783 119.119C150.077 119.438 150.478 119.6 150.881 119.6Z" fill="#9E00FF"/>
</svg>
