<svg width="117" height="117" viewBox="0 0 117 117" fill="none" xmlns="http://www.w3.org/2000/svg">
<path d="M9.54761 100.155C0.648336 88.6818 -2.34889 70.7017 1.91144 54.3484C5.85047 39.2284 15.1878 27.8592 28.2035 22.3352L82.5419 0.0696314C83.0164 -0.124904 83.5587 0.102131 83.7532 0.576864C83.9478 1.05136 83.7207 1.59365 83.246 1.78819L28.9185 24.0493C16.456 29.3387 7.49917 40.267 3.7087 54.8168C-0.41187 70.6329 2.45628 87.9826 11.0152 99.0173C18.5727 108.761 32.0984 114.784 47.1964 115.128C63.279 115.492 77.7655 109.527 86.9376 98.755L115.36 64.932C115.691 64.5394 116.276 64.4886 116.669 64.8185C117.061 65.1483 117.112 65.7343 116.782 66.1268L88.3553 99.954C83.4449 105.721 77.1431 110.143 69.6209 113.1C63.1118 115.66 55.8441 117 48.5206 117C48.0649 117 47.6099 116.995 47.1537 116.984C31.5027 116.627 17.4443 110.336 9.54761 100.155ZM13.7176 70.9867C13.9637 66.9405 12.5297 64.0461 11.2648 61.4925C10.0091 58.958 8.82309 56.5639 9.62422 53.6972C10.58 50.2782 14.096 48.3646 17.4967 46.514C19.7534 45.286 22.0867 44.0161 23.4805 42.3779C24.9021 40.7072 25.616 38.5239 26.3064 36.4125C27.293 33.3954 28.3133 30.2756 31.4048 28.6678C34.6204 26.9952 38.5908 27.749 42.4305 28.4774C44.8278 28.9324 47.0929 29.3623 49.1193 29.2279C51.0579 29.0998 53.3914 28.2525 55.8624 27.3555C60.223 25.7723 64.7324 24.1347 68.4834 25.8238C72.1982 27.4964 72.6163 33.4571 73.0207 39.2215C73.2853 42.9928 73.559 46.8926 74.7332 49.1922C76.1486 51.964 78.9984 53.6533 81.7542 55.2869C84.6658 57.0127 87.4158 58.6428 88.3432 61.4517C89.5141 64.9979 88.0869 69.3204 86.7068 73.5006C86.0148 75.5971 85.3608 77.5773 85.1268 79.2422C84.9337 80.6165 84.9016 82.1985 84.8675 83.8734C84.774 88.4778 84.6681 93.6968 81.2273 97.5353C78.1418 100.977 71.3267 101.202 64.7361 101.419C61.1001 101.539 57.6659 101.652 55.0796 102.284C51.7829 103.091 49.1527 104.923 46.6093 106.696C43.9487 108.55 41.4227 110.309 38.6273 110.309C38.3679 110.309 38.1063 110.294 37.8421 110.263C34.1852 109.825 32.078 107.321 30.2187 105.111C29.1787 103.875 28.1963 102.707 27.027 101.949C26.0269 101.3 24.3782 100.817 22.469 100.257C18.1316 98.9859 12.7338 97.4039 10.3086 92.5187C8.15683 88.1843 9.71476 84.1077 11.3644 79.7914C12.4274 77.0115 13.5261 74.1362 13.7176 70.9867ZM15.5713 71.0993C15.3626 74.5332 14.2121 77.5436 13.0994 80.4549C11.5343 84.5506 10.1825 88.0875 11.9726 91.6932C14.0364 95.8506 19.002 97.3059 22.9918 98.4752C25.041 99.0758 26.8104 99.5944 28.0382 100.391C29.4397 101.3 30.5584 102.63 31.6404 103.915C33.4374 106.051 35.1346 108.069 38.0631 108.419C40.4742 108.708 42.8256 107.069 45.5482 105.172C48.1064 103.389 51.0059 101.369 54.639 100.48C57.4127 99.8019 60.9406 99.6856 64.6756 99.5626C70.8766 99.3583 77.2889 99.1471 79.8451 96.2956C82.8258 92.9702 82.9245 88.1172 83.0113 83.8356C83.0463 82.1036 83.0795 80.4677 83.2882 78.9836C83.5455 77.1531 84.2247 75.0959 84.9437 72.9182C86.2293 69.0242 87.5588 64.9977 86.5801 62.0339C85.8706 59.8857 83.4113 58.4278 80.8075 56.8843C77.9633 55.1982 74.7395 53.2872 73.0794 50.0368C71.733 47.4001 71.4458 43.3083 71.1684 39.3512C70.8021 34.1313 70.4235 28.7335 67.7211 27.5168C64.6577 26.1379 60.5085 27.644 56.4964 29.1007C53.898 30.0442 51.4437 30.9351 49.2421 31.0807C46.9784 31.2304 44.4905 30.7582 42.0844 30.3016C40.0484 29.9153 37.9721 29.5214 36.0723 29.5214C34.6789 29.5214 33.3808 29.7331 32.2618 30.3151C29.8429 31.573 29.022 34.083 28.0716 36.9894C27.3253 39.2716 26.5536 41.6316 24.8947 43.5811C23.2774 45.4819 20.7897 46.8357 18.3842 48.1448C15.182 49.8875 12.1572 51.5339 11.4129 54.1968C10.8035 56.3775 11.7414 58.2706 12.9288 60.6677C14.229 63.2926 15.8473 66.5593 15.5713 71.0993ZM17.9828 80.9378L17.9863 80.9412C18.0504 80.8746 18.121 80.814 18.2034 80.7685C18.4378 80.6395 18.7164 80.6176 18.9678 80.7089C21.8165 81.7407 23.8345 83.4869 24.9665 85.8989C26.0322 88.1697 26.3122 91.0629 25.7987 94.4977C25.7553 94.7881 25.577 95.0409 25.3179 95.1795C25.1814 95.2524 25.031 95.2891 24.8803 95.2891C24.745 95.2891 24.6096 95.2596 24.4841 95.2004C24.4827 95.1997 24.481 95.199 24.4796 95.1983C23.2495 94.6098 21.8956 94.3649 20.5863 94.1279C18.2737 93.7093 15.8822 93.2766 14.4217 90.932C12.1072 87.2158 17.3746 81.5692 17.9828 80.9378ZM19.3562 82.8778C19.0105 85.2036 19.2624 87.23 20.1086 88.914C20.9009 90.4911 22.2471 91.8334 24.1191 92.9159C24.3399 90.4301 24.0609 88.3396 23.2855 86.6877C22.4953 85.0042 21.2045 83.7504 19.3562 82.8778ZM15.9982 89.95C16.8992 91.3965 18.3362 91.8118 20.1483 92.1584C19.4532 91.4197 18.885 90.6156 18.449 89.7476C17.7005 88.2582 17.3351 86.5723 17.3507 84.7122C16.174 86.4741 15.1778 88.6328 15.9982 89.95ZM24.0353 78.6467C23.6084 78.3624 23.032 78.4782 22.7478 78.9051C22.4637 79.332 22.5793 79.9084 23.0062 80.1926C26.6082 82.5904 28.3214 85.8919 28.2434 90.2862C28.2344 90.7987 28.6427 91.2219 29.1555 91.231C29.1611 91.231 29.1667 91.231 29.1722 91.231C29.6774 91.231 30.0913 90.8259 30.1003 90.3189C30.1892 85.3118 28.1485 81.3846 24.0353 78.6467ZM45.4091 100.861C44.2688 102.431 42.691 103.471 41.0801 103.714C40.8447 103.749 40.6133 103.767 40.3874 103.767C39.5359 103.767 38.758 103.517 38.1084 103.03C36.0426 101.48 35.9957 98.1026 38.0019 95.3404C39.1422 93.7702 40.7198 92.7304 42.3309 92.4876C43.4529 92.3179 44.4806 92.5549 45.3028 93.1717C47.3684 94.7212 47.4151 98.0987 45.4091 100.861ZM44.1881 94.6572C43.812 94.3751 43.3841 94.2927 43.0129 94.2927C42.8667 94.2927 42.7293 94.3055 42.6071 94.324C41.5014 94.4907 40.3414 95.2786 39.5041 96.4317C38.1474 98.2997 38.0183 100.641 39.2225 101.544C39.7469 101.937 40.3716 101.943 40.8034 101.877C41.9091 101.711 43.0691 100.923 43.9067 99.7694C45.2631 97.9016 45.3922 95.5604 44.1881 94.6572ZM44.7322 87.373C41.0353 87.009 37.1773 90.1104 37.0148 90.2425C36.6173 90.5661 36.5574 91.15 36.8806 91.5478C37.2037 91.9457 37.7883 92.0066 38.1864 91.6834C38.2203 91.656 41.6182 88.933 44.55 89.2213C47.2872 89.4913 48.5631 92.6452 48.5747 92.6744C48.7174 93.0422 49.0684 93.2673 49.4406 93.2673C49.5522 93.2673 49.666 93.2471 49.7763 93.2042C50.2545 93.0187 50.4915 92.4806 50.306 92.0026C50.2387 91.829 48.6146 87.7558 44.7322 87.373ZM39.9572 85.7638C40.3351 85.7638 40.6906 85.5312 40.8287 85.1558L42.5714 80.4217C42.7485 79.9405 42.502 79.4065 42.0207 79.2294C41.54 79.0528 41.0058 79.2988 40.8285 79.7801L39.0857 84.5142C38.9086 84.9954 39.1552 85.5293 39.6364 85.7064C39.7425 85.7452 39.8507 85.7638 39.9572 85.7638ZM44.5878 85.1874C44.6858 85.2203 44.7856 85.2359 44.8836 85.2359C45.2715 85.2359 45.6332 84.9907 45.7636 84.6028L47.4058 79.7155C47.5692 79.2294 47.3076 78.7029 46.8213 78.5397C46.3354 78.3765 45.8087 78.6382 45.6455 79.1243L44.0033 84.0116C43.8401 84.4977 44.1017 85.0239 44.5878 85.1874ZM75.828 86.7847C77.1858 90.1455 76.0096 93.8312 73.2062 95.0012C72.6284 95.2424 72.0111 95.3627 71.3829 95.3627C70.706 95.3627 70.0165 95.2229 69.3491 94.9441C67.7204 94.2637 66.3656 92.8321 65.6322 91.0167C64.2742 87.656 65.4505 83.9702 68.2538 82.8002C69.4543 82.2993 70.8241 82.3197 72.1109 82.8574C73.7396 83.5378 75.0944 84.9692 75.828 86.7847ZM69.6978 93.054C69.9968 92.2689 70.3747 90.8914 70.2403 89.1626C70.0917 87.2504 69.0225 85.6322 68.3989 84.8373C66.9638 85.8666 66.4823 88.1646 67.3536 90.3212C67.8446 91.5353 68.6866 92.5101 69.6978 93.054ZM74.106 87.4805C73.557 86.1217 72.5689 85.0615 71.3948 84.571C71.0324 84.4194 70.67 84.3335 70.3144 84.3059C71.0537 85.384 71.9389 87.0522 72.0917 89.0189C72.2409 90.9399 71.8688 92.4996 71.5125 93.502C71.8495 93.4869 72.178 93.4178 72.4905 93.2875C74.3599 92.5073 75.0845 89.9024 74.106 87.4805ZM60.8832 91.0348C60.9647 91.4833 61.3552 91.7972 61.7956 91.7972C61.8503 91.7972 61.9058 91.7923 61.9615 91.7823C62.4658 91.6913 62.801 91.2087 62.7107 90.7042C62.6963 90.6249 61.3457 82.732 66.4215 80.3407C71.5661 77.9174 77.6309 83.6283 77.6908 83.6859C78.0606 84.0406 78.6484 84.0287 79.0038 83.6585C79.3587 83.2884 79.3466 82.7007 78.9764 82.3455C78.6918 82.0725 71.9326 75.6923 65.6301 78.6604C59.2612 81.6609 60.8141 90.6534 60.8832 91.0348ZM80.3713 77.5554L75.9202 74.2502C75.5086 73.9445 74.9271 74.0304 74.6211 74.4422C74.3154 74.8538 74.4013 75.4355 74.8131 75.7412L79.2642 79.0465C79.4307 79.17 79.6248 79.2297 79.8172 79.2297C80.1009 79.2297 80.3811 79.0999 80.5633 78.8545C80.8688 78.4429 80.7829 77.8612 80.3713 77.5554ZM74.59 68.4072C72.051 65.8271 71.535 62.309 73.4153 60.3982C74.1519 59.6496 75.1581 59.2538 76.3246 59.2538C78.0232 59.2538 79.8975 60.1278 81.3382 61.5917C83.877 64.1719 84.393 67.6901 82.5129 69.6006C81.7763 70.3493 80.7702 70.7451 79.6036 70.7451C77.9048 70.7453 76.0307 69.8713 74.59 68.4072ZM75.9139 67.1046C77.0127 68.2214 78.3921 68.8882 79.6036 68.8882C80.0624 68.8882 80.7096 68.786 81.1892 68.2983C82.3118 67.1571 81.7742 64.6824 80.0145 62.8942C78.9156 61.7776 77.5361 61.1109 76.3246 61.1109C75.8659 61.1109 75.2186 61.213 74.739 61.7008C73.6164 62.8418 74.1543 65.3164 75.9139 67.1046ZM70.7991 69.9358C70.9516 69.9358 71.1064 69.8982 71.249 69.819C71.6975 69.57 71.8588 69.0047 71.61 68.5564C70.2222 66.0576 69.6655 63.518 69.9548 61.0076C70.0135 60.498 69.6481 60.0375 69.1385 59.9787C68.6287 59.9198 68.1684 60.2854 68.1097 60.795C67.7752 63.6986 68.4064 66.6132 69.9861 69.4581C70.156 69.7636 70.4727 69.9358 70.7991 69.9358ZM53.5992 45.6421C52.5748 41.0454 54.8068 36.6001 58.5748 35.733C60.1587 35.3684 61.8527 35.6848 63.343 36.6247C65.2859 37.85 66.7212 39.9938 67.2811 42.5063C68.3054 47.1029 66.0733 51.5482 62.3054 52.4153C61.8763 52.514 61.4395 52.5629 61.0005 52.5629C59.8186 52.5629 58.6238 52.2089 57.5373 51.5236C55.5945 50.2984 54.1591 48.1545 53.5992 45.6421ZM58.4139 37.7241C59.8107 38.6177 61.7515 40.3499 62.5173 43.3594C63.2685 46.3111 62.749 48.9285 62.2378 50.5066C64.7979 49.669 66.2372 46.3603 65.4683 42.9104C65.0154 40.8773 63.8795 39.159 62.3522 38.1956C61.5585 37.6951 60.7228 37.44 59.8948 37.44C59.5918 37.44 59.2898 37.4741 58.9912 37.5428C58.7923 37.5886 58.6003 37.6503 58.4139 37.7241ZM55.412 45.2381C55.8649 47.2712 57.0008 48.9896 58.5281 49.953C59.0757 50.2984 59.6431 50.5259 60.2144 50.6343C60.6608 49.5158 61.4877 46.8439 60.7175 43.8174C59.9611 40.8455 57.753 39.4176 56.7494 38.9078C55.4408 40.3792 54.8625 42.7728 55.412 45.2381ZM22.7622 55.9736C25.3286 52.9868 28.7086 51.1448 32.0357 50.9196C34.3597 50.7622 36.4205 51.4166 37.9923 52.8118C41.8947 56.2751 41.4309 63.3274 36.9581 68.5327C34.3918 71.5195 31.0117 73.3615 27.6849 73.5865C27.4585 73.6018 27.235 73.6095 27.014 73.6095C24.9637 73.6095 23.1471 72.9539 21.728 71.6943C17.8257 68.231 18.2895 61.1787 22.7622 55.9736ZM38.8037 59.1022C37.8027 58.464 34.7704 56.8522 31.8756 58.5648C30.2501 59.5263 29.413 61.5445 28.4438 63.8818C27.4267 66.3344 26.2906 69.0715 23.9418 71C24.9734 71.5729 26.2024 71.8248 27.5595 71.7338C30.3515 71.5448 33.3385 69.8959 35.5497 67.3226C37.7407 64.7723 38.8503 61.7465 38.8037 59.1022ZM22.46 69.7972C24.6533 68.1636 25.7082 65.6298 26.7282 63.1705C27.7791 60.6364 28.7715 58.243 30.93 56.9665C33.775 55.2837 36.6417 55.9989 38.4353 56.8051C38.1031 55.7911 37.5466 54.8997 36.7596 54.2012C35.6876 53.2496 34.2924 52.7545 32.6994 52.7545C32.5223 52.7545 32.3429 52.7605 32.1611 52.773C29.3691 52.9618 26.3821 54.6109 24.1709 57.1842C20.5724 61.3716 19.8862 66.8437 22.46 69.7972ZM33.4383 76.2599C33.0001 76.5259 32.8603 77.0965 33.1261 77.535C33.3007 77.8231 33.6071 77.9824 33.921 77.9824C34.0849 77.9824 34.2509 77.9389 34.4015 77.8477C34.6729 77.6833 41.082 73.7522 44.1351 67.9394C47.1853 62.1321 46.9568 56.3304 46.9457 56.0862C46.9223 55.5741 46.4849 55.1755 45.9765 55.2017C45.4646 55.2247 45.0681 55.6583 45.0904 56.1704C45.0927 56.2255 45.2984 61.7303 42.4908 67.0758C39.6819 72.4244 33.5003 76.2222 33.4383 76.2599ZM26.8069 49.8406C27.0732 49.8406 27.3378 49.7266 27.5214 49.5056L31.7386 44.4326C32.0664 44.0382 32.0125 43.4527 31.6181 43.1249C31.2237 42.7972 30.6382 42.851 30.3104 43.2454L26.0933 48.3184C25.7655 48.7129 25.8194 49.2983 26.2138 49.6261C26.3874 49.7703 26.5977 49.8406 26.8069 49.8406ZM32.198 48.8816C32.3756 49.0423 32.5984 49.1217 32.8206 49.1217C33.0739 49.1217 33.3262 49.0186 33.5096 48.8159L36.6538 45.3398C36.9978 44.9596 36.9683 44.3725 36.5881 44.0284C36.2078 43.6844 35.6207 43.7139 35.2767 44.0941L32.1325 47.5702C31.7883 47.9505 31.8175 48.5376 32.198 48.8816ZM42.9217 43.868C42.9879 43.8824 43.054 43.8894 43.1193 43.8894C43.5469 43.8894 43.9318 43.592 44.0258 43.1572L45.4015 36.8062C45.5101 36.305 45.1919 35.8106 44.6904 35.7022C44.1901 35.5935 43.6947 35.9118 43.5863 36.4132L42.2106 42.7642C42.1022 43.2652 42.4205 43.7594 42.9217 43.868ZM47.7524 42.8025C47.7937 42.8078 47.8346 42.8106 47.875 42.8106C48.3339 42.8106 48.7328 42.4708 48.7945 42.0035L49.6592 35.4526C49.7263 34.9442 49.3686 34.4776 48.8602 34.4105C48.3513 34.3437 47.8852 34.7012 47.8181 35.2096L46.9534 41.7604C46.8863 42.2688 47.2442 42.7354 47.7524 42.8025ZM57.7604 19.9562C57.9153 20.3004 58.2537 20.5045 58.608 20.5045C58.7352 20.5045 58.8643 20.4782 58.988 20.4228L96.988 3.35422C97.4558 3.14413 97.6647 2.59465 97.4547 2.12665C97.2446 1.65888 96.6953 1.45019 96.2271 1.66004L58.227 18.7286C57.759 18.9387 57.5503 19.4882 57.7604 19.9562ZM75.1894 26.9743C75.3368 26.9743 75.4865 26.939 75.6256 26.8647L97.0447 15.4396C97.4971 15.1982 97.6682 14.6357 97.4268 14.1832C97.1856 13.7308 96.6229 13.5597 96.1704 13.8011L74.7513 25.2263C74.2989 25.4677 74.1278 26.0302 74.3692 26.4826C74.5364 26.7958 74.8574 26.9743 75.1894 26.9743ZM78.6774 40.7633C78.8587 41.0166 79.1438 41.1515 79.4332 41.1515C79.6203 41.1515 79.8093 41.0951 79.973 40.9779L115.098 15.834C115.515 15.5355 115.611 14.9553 115.312 14.5384C115.014 14.1215 114.434 14.0254 114.017 14.3239L78.8921 39.468C78.4749 39.7665 78.3788 40.3467 78.6774 40.7633ZM108.698 42.3895C108.383 41.9851 107.8 41.9127 107.395 42.2282L91.9544 54.2652C91.55 54.5805 91.4778 55.1641 91.7931 55.5685C91.9763 55.8034 92.2497 55.9262 92.5262 55.9262C92.7256 55.9262 92.9269 55.8622 93.0966 55.7301L108.537 43.693C108.941 43.3775 109.013 42.7941 108.698 42.3895ZM93.9702 74.8298C94.1946 74.8298 94.4198 74.7491 94.5981 74.5852L115.185 55.6813C115.563 55.3345 115.588 54.7472 115.241 54.3692C114.894 53.9915 114.307 53.9667 113.929 54.3133L93.342 73.2172C92.9643 73.564 92.9392 74.1513 93.286 74.5292C93.4692 74.7289 93.7192 74.8298 93.9702 74.8298Z" fill="#707070"/>
</svg>
