<svg width="114" height="100" viewBox="0 0 114 100" fill="none" xmlns="http://www.w3.org/2000/svg">
<path d="M90.2944 34.9093C70.5273 20.247 43.4727 20.247 23.7079 34.9093C20.8617 37.0223 19.1824 40.354 19.1824 43.8958V58.0584C19.1824 61.7847 21.0394 65.2682 24.1382 67.3484L34.0288 73.9908C36.8517 75.8866 40.1751 76.8976 43.5756 76.8976H57H70.4268C73.8273 76.8976 77.153 75.8843 79.9735 73.9908L89.8641 67.3484C92.9606 65.2682 94.8199 61.787 94.8199 58.0584V43.8958C94.8199 40.354 93.1407 37.0223 90.2944 34.9093ZM44.0784 50.3631L69.3089 40.1252C69.7275 39.9547 70.2046 40.1555 70.3753 40.5734C70.546 40.9913 70.3449 41.4676 69.9263 41.6381L44.6959 51.876C44.5953 51.918 44.49 51.9367 44.3871 51.9367C44.0644 51.9367 43.758 51.7452 43.6294 51.4277C43.4587 51.0098 43.6598 50.5335 44.0784 50.3631ZM81.2037 45.3573L39.153 62.4221C39.0524 62.4641 38.9472 62.4828 38.8443 62.4828C38.5216 62.4828 38.2152 62.2913 38.0865 61.9738C37.9158 61.5559 38.1169 61.0796 38.5356 60.9092L80.5863 43.8444C81.0049 43.674 81.482 43.8748 81.6528 44.2927C81.8235 44.7106 81.6224 45.1869 81.2037 45.3573Z" fill="black"/>
<path d="M110.908 38.8994L109.339 38.5048C108.902 38.3951 108.455 38.6589 108.345 39.0979C108.235 39.5368 108.499 39.9804 108.939 40.0901L110.508 40.4847C111.6 40.7602 112.363 41.7361 112.363 42.8615V48.4976C111.369 46.5014 109.538 44.9651 107.26 44.3931C106.829 44.2857 106.408 44.3744 106.076 44.5915C105.005 36.2821 101.853 28.4373 96.7915 21.6199C90.6897 13.3968 82.3731 7.36149 72.7141 4.13719C72.7 3.9831 72.672 3.83134 72.6252 3.68191C72.41 3.00016 71.8768 2.46083 71.1962 2.23903C66.6216 0.751792 61.8435 0 56.9953 0C52.1471 0 47.369 0.754127 42.7944 2.23903C42.1139 2.46083 41.5783 3.00016 41.3655 3.68191C41.1503 4.366 41.2813 5.11545 41.7163 5.68747C44.3941 9.21295 46.0289 13.4015 46.4476 17.8049C35.4578 19.4882 25.0878 23.8052 16.0087 30.541L12.6643 33.0228C17.2576 21.7459 26.0911 12.3952 37.6585 7.28678C38.0725 7.10467 38.2596 6.62137 38.0772 6.20812C37.8948 5.79487 37.4106 5.60809 36.9967 5.7902C23.3992 11.7975 13.4548 23.4713 9.45323 37.3001L3.09183 38.9017C1.26994 39.3593 0 40.989 0 42.8638V59.4616C0 61.3411 1.27462 62.9707 3.10118 63.426L9.62863 65.0533C9.80404 65.6254 9.99348 66.195 10.1923 66.7624C10.2063 66.8348 10.232 66.9048 10.2648 66.9702C13.0245 74.7613 17.8236 82.0691 24.5335 88.5807C24.6925 88.7348 24.8983 88.8118 25.1041 88.8118C25.317 88.8118 25.5298 88.7301 25.6912 88.5644C26.0069 88.2398 25.9999 87.7238 25.6748 87.4086C19.8232 81.7282 15.4661 75.4337 12.6994 68.7399L28.5982 79.4168C32.1789 81.8216 36.3535 83.0917 40.6685 83.0917H73.3362C77.6512 83.0917 81.8258 81.8216 85.4064 79.4168L101.46 68.6372C98.0965 77.0727 92.3525 84.5066 84.7586 89.9162H29.059C27.2137 89.9162 25.7122 91.4151 25.7122 93.2572V96.659C25.7122 98.5011 27.2137 100 29.059 100H84.9387C86.784 100 88.2854 98.5011 88.2854 96.659V93.2572C88.2854 92.0922 87.6821 91.0649 86.7746 90.4672C95.3134 84.0349 101.45 75.0741 104.437 65.0417L110.899 63.4307C112.725 62.9754 114 61.3458 114 59.4663V42.8685C114.002 40.9867 112.73 39.357 110.908 38.8994ZM86.6507 96.652C86.6507 97.5929 85.8836 98.3587 84.941 98.3587H80.163C80.3454 98.0785 80.453 97.7446 80.453 97.3851C80.453 94.8659 79.0521 92.6735 76.9846 91.5412H84.941C85.8836 91.5412 86.6507 92.307 86.6507 93.2479V96.652ZM72.2627 5.70848C81.5732 8.83239 89.5905 14.6576 95.4771 22.5935C97.8977 25.8574 99.8669 29.3642 101.366 33.0485L97.9866 30.541C88.9076 23.8052 78.5352 19.4882 67.5478 17.8049C67.9664 13.4108 69.5942 9.2293 72.2627 5.70848ZM43.026 4.69987C42.909 4.54811 42.8763 4.35432 42.9348 4.17221C42.9909 3.9901 43.1289 3.85235 43.309 3.79398C47.7198 2.36044 52.3272 1.63433 57.0023 1.63433C61.6775 1.63433 66.2848 2.36044 70.6957 3.79398C70.8758 3.85235 71.0114 3.9901 71.0699 4.17221C71.1284 4.35432 71.0933 4.54811 70.9787 4.69987C68.1324 8.44715 66.3901 12.8972 65.9317 17.5761C62.9919 17.1978 60.0146 17.0017 57.0047 17.0017C53.9947 17.0017 51.0175 17.1955 48.0777 17.5761C47.6146 12.8972 45.8722 8.44715 43.026 4.69987ZM7.92602 44.5962C7.59392 44.3744 7.17061 44.2833 6.73794 44.3931C4.46 44.9651 2.62875 46.5014 1.63479 48.4976V42.8615C1.63479 41.7361 2.39722 40.7602 3.48941 40.4847L8.96443 39.1072C8.52006 40.905 8.16925 42.7377 7.92602 44.5962ZM102.411 66.0223L84.492 78.0579C81.1827 80.2806 77.3237 81.455 73.3362 81.455H40.6662C36.6763 81.455 32.8197 80.2806 29.5103 78.0579L11.6961 66.0947C10.0122 61.2267 9.14919 56.1673 9.14919 50.9981C9.14919 45.7542 10.0122 40.6435 11.6283 35.8339L16.991 31.8554C28.645 23.2098 42.481 18.6384 57.0023 18.6384C71.5236 18.6384 85.3597 23.2075 97.0137 31.8554L102.411 35.8595C104.025 40.6878 104.855 45.7799 104.855 51.0004C104.853 56.1649 104.007 61.2314 102.411 66.0223Z" fill="black"/>
</svg>
