<svg width="93" height="125" viewBox="0 0 93 125" fill="none" xmlns="http://www.w3.org/2000/svg">
<path d="M93 65.5078C93 65.9399 92.8547 66.372 92.7094 66.8041C92.1281 67.6683 91.111 68.2444 90.0938 68.1004L70.9127 65.9399L69.0236 67.5243L79.6314 74.726C80.3579 75.1581 80.7939 76.0223 80.7939 76.8865C80.7939 77.6067 80.3579 78.6149 79.6314 79.047C70.1861 85.2405 55.655 94.8909 54.6378 95.7551C54.0566 96.4753 53.1847 96.4753 52.3128 96.3312C50.8597 96.0432 50.2785 95.8991 46.791 84.9525L45.3379 86.1048L40.9785 104.973C40.6879 105.982 39.9614 106.702 39.0895 106.99C38.0723 107.278 37.0551 106.846 36.4739 106.126L19.3272 85.6727C18.8912 85.2405 18.7459 84.6644 18.7459 84.0883L18.0193 62.339C18.0193 62.339 18.0193 62.339 18.0193 62.195C11.1897 54.129 5.08664 45.4869 3.63353 39.2934C-0.14457 24.0257 0.000741382 3.28472 0.000741382 2.56454C0.000741382 1.70033 0.436674 0.980156 1.01792 0.548052C1.59916 0.115947 2.47103 -0.172116 3.3429 0.115954C4.50539 0.404023 32.8411 8.03786 44.7566 24.3138C47.6629 28.2027 50.8597 32.6678 54.0566 36.9889L74.6908 42.4622C75.272 42.6062 75.708 42.8943 76.1439 43.3264L92.4188 63.7794C92.7094 64.3555 93 64.9316 93 65.5078ZM71.4939 60.6106L84.2813 62.0509L72.0752 46.7832L58.5612 43.1824C64.519 51.2483 69.7502 58.306 71.4939 60.6106ZM53.7659 89.7056C56.5269 87.8332 62.0487 84.0883 73.2377 76.7425L64.8096 70.9811C64.6643 70.8371 64.6643 70.8371 64.519 70.693L50.8597 81.3516C51.005 81.6397 51.1503 81.9277 51.2957 82.2158C52.1675 84.8084 53.0394 87.6891 53.7659 89.7056ZM42.8676 81.0635L66.408 62.6271C63.5018 58.7381 56.9628 50.096 50.2785 41.0218C49.6972 40.7338 49.2613 40.1576 49.116 39.4375C45.9191 35.1164 42.7223 30.7954 39.9614 27.0505C36.7645 22.7294 32.2599 18.9845 27.3193 15.9598C23.6865 20.7129 17.4381 26.6184 6.97569 30.6513C7.41162 33.0999 7.84755 35.5485 8.4288 37.709C11.0444 48.9438 32.8411 71.4132 42.8676 81.0635ZM36.7645 98.4918L39.816 85.3846C37.2004 82.936 30.2255 76.1664 23.1052 68.3885L23.6865 82.936L36.7645 98.4918ZM6.10382 25.3221C14.3866 21.8652 19.6178 17.1121 22.6693 13.2231C15.6944 9.47822 8.71942 7.02962 4.79602 5.7333C4.94133 10.0543 5.23195 17.5442 6.10382 25.3221ZM91.6922 122.402C91.6922 123.266 91.2563 124.13 90.5297 124.562C89.8032 124.994 88.9313 125.138 88.0594 124.85C84.8626 123.698 69.1689 117.648 65.3909 112.319C61.1768 106.27 62.6299 97.9156 68.733 93.5946C71.6392 91.5781 75.272 90.7139 78.9048 91.434C82.5376 92.0102 85.5891 94.0267 87.6235 96.9074C91.4016 102.237 91.6922 119.089 91.6922 122.402ZM68.2971 104.685C68.2971 106.27 68.733 107.998 69.7502 109.438C71.4939 111.887 79.4861 115.776 86.3157 118.513C86.0251 111.311 85.1532 102.381 83.4095 99.9321C82.1017 98.2037 80.2126 96.9074 78.0329 96.6193C75.8533 96.1872 73.6736 96.7633 71.7845 97.9156C69.6049 99.5 68.2971 102.093 68.2971 104.685ZM42.577 45.631C42.577 46.0631 42.577 46.4952 42.4317 46.9273C42.141 49.5199 40.6879 51.8245 38.6536 53.5529C36.4739 55.1373 33.8583 55.8574 31.2427 55.5694C28.6271 55.2813 26.3021 53.8409 24.7037 51.8245C23.1052 49.6639 22.3787 47.0713 22.6693 44.4787C23.3959 39.0054 28.4818 35.2604 33.8583 35.9806C36.4739 36.2687 38.7989 37.709 40.5426 39.7255C41.8504 41.454 42.577 43.4704 42.577 45.631ZM27.7552 45.631C27.7552 46.6392 28.0458 47.6475 28.7724 48.5117C29.4989 49.5199 30.6614 50.096 31.8239 50.2401C33.1317 50.3841 34.2942 50.096 35.3114 49.3759C36.3286 48.6557 36.9098 47.5034 37.0551 46.3511C37.2004 45.1989 36.9098 43.9025 36.1833 42.8943C35.4567 41.8861 34.2942 41.3099 33.1317 41.1659C30.5161 40.8778 28.1911 42.6062 27.9005 45.1989C27.9005 45.3429 27.7552 45.4869 27.7552 45.631Z" fill="black"/>
</svg>
