<svg width="22" height="22" viewBox="0 0 22 22" fill="none" xmlns="http://www.w3.org/2000/svg">
<path d="M17.4943 8.7454C17.4943 3.91315 13.5759 0 8.74713 0C3.9166 0 0.00172766 3.91487 0 8.7454C0.00172766 13.5777 3.9166 17.4908 8.74713 17.4908C10.9499 17.4908 12.9402 16.6477 14.4795 15.3036L21.1725 22L22 21.1725L15.3071 14.476C16.6529 12.9384 17.4943 10.9499 17.4943 8.7454ZM8.74713 16.3229C4.56447 16.3143 1.17999 12.9281 1.17135 8.74713C1.17999 4.56102 4.56275 1.17999 8.74713 1.17135C12.9332 1.17999 16.316 4.56102 16.3229 8.74713C16.316 12.9281 12.9332 16.3125 8.74713 16.3229Z" fill="#6B7280"/>
</svg>
